<svg xmlns="http://www.w3.org/2000/svg" xmlns:xlink="http://www.w3.org/1999/xlink" width="1024" zoomAndPan="magnify" viewBox="0 0 768 767.999994" height="1024" preserveAspectRatio="xMidYMid meet" version="1.0"><defs><g/><clipPath id="a019ea6fbe"><path d="M 33.050781 35.960938 L 745.660156 35.960938 L 745.660156 748.570312 L 33.050781 748.570312 Z M 33.050781 35.960938 " clip-rule="nonzero"/></clipPath><clipPath id="e0fdfad94b"><path d="M 389.355469 35.960938 C 192.574219 35.960938 33.050781 195.484375 33.050781 392.265625 C 33.050781 589.046875 192.574219 748.570312 389.355469 748.570312 C 586.136719 748.570312 745.660156 589.046875 745.660156 392.265625 C 745.660156 195.484375 586.136719 35.960938 389.355469 35.960938 Z M 389.355469 35.960938 " clip-rule="nonzero"/></clipPath></defs><g clip-path="url(#a019ea6fbe)"><g clip-path="url(#e0fdfad94b)"><path fill="#0099cc" d="M 33.050781 35.960938 L 745.660156 35.960938 L 745.660156 748.570312 L 33.050781 748.570312 Z M 33.050781 35.960938 " fill-opacity="1" fill-rule="nonzero"/></g></g><g fill="#ffffff" fill-opacity="1"><g transform="translate(139.916115, 561.03477)"><g><path d="M 207.765625 -161.46875 C 207.765625 -189.25 204.195312 -208.925781 197.0625 -220.5 C 189.925781 -232.070312 177.675781 -237.859375 160.3125 -237.859375 C 154.90625 -237.859375 149.304688 -237.566406 143.515625 -236.984375 C 137.734375 -236.410156 132.144531 -235.738281 126.75 -234.96875 L 126.75 0 L 40.515625 0 L 40.515625 -294 C 47.835938 -295.925781 56.414062 -297.945312 66.25 -300.0625 C 76.09375 -302.1875 86.515625 -304.117188 97.515625 -305.859375 C 108.515625 -307.597656 119.800781 -308.945312 131.375 -309.90625 C 142.945312 -310.875 154.328125 -311.359375 165.515625 -311.359375 C 187.503906 -311.359375 205.347656 -308.5625 219.046875 -302.96875 C 232.742188 -297.375 244.03125 -290.71875 252.90625 -283 C 265.25 -291.875 279.425781 -298.816406 295.4375 -303.828125 C 311.457031 -308.847656 326.21875 -311.359375 339.71875 -311.359375 C 364.019531 -311.359375 383.984375 -307.984375 399.609375 -301.234375 C 415.242188 -294.484375 427.6875 -284.929688 436.9375 -272.578125 C 446.195312 -260.234375 452.5625 -245.570312 456.03125 -228.59375 C 459.507812 -211.625 461.25 -192.722656 461.25 -171.890625 L 461.25 0 L 375.015625 0 L 375.015625 -161.46875 C 375.015625 -189.25 371.445312 -208.925781 364.3125 -220.5 C 357.175781 -232.070312 344.925781 -237.859375 327.5625 -237.859375 C 322.9375 -237.859375 316.472656 -236.703125 308.171875 -234.390625 C 299.878906 -232.078125 293.03125 -229.179688 287.625 -225.703125 C 290.332031 -216.828125 292.070312 -207.46875 292.84375 -197.625 C 293.613281 -187.789062 294 -177.28125 294 -166.09375 L 294 0 L 207.765625 0 Z M 207.765625 -161.46875 "/></g></g></g></svg>